<?xml version='1.0' encoding='utf-8'?>
<svg xmlns="http://www.w3.org/2000/svg" version="1.1" viewBox="0 0 250.91 263.36"> <g transform="translate(-249.54 -352.54)"> <g transform="matrix(1.2164 0 0 1.2164 -77.557 229.4)"> <path d="m368.61 187.5c2.256 7.0542 3.4188 14.457 3.4341 21.863 0.0153 7.3918-1.1124 14.785-3.3307 21.836l14.76 18.532c6.0484-12.536 9.2187-26.45 9.198-40.368-0.0206-13.899-3.2231-27.784-9.2922-40.288l-14.769 18.425m-17.193-81.274-58.014 72.196h-24.495v61.882h24.495l58.014 72.196v-206.27m59.497 28.363-13.488 16.921c10.299 17.418 15.841 37.618 15.873 57.853 0.0323 20.303-5.4836 40.588-15.793 58.079l13.569 16.937c14.83-21.997 22.899-48.487 22.851-75.016-0.0475-26.465-8.1714-52.862-23.012-74.774m26.719-33.358-13.182 16.518c19.39 26.32 30.103 58.924 30.103 91.614 0 32.691-10.713 65.295-30.103 91.614l13.263 16.76c24.082-30.603 37.506-69.432 37.468-108.37-0.0382-38.871-13.488-77.603-37.548-108.13" fill="#323232"/> </g> </g> </svg>